<?xml version="1.0" standalone="no"?>
<!DOCTYPE svg PUBLIC "-//W3C//DTD SVG 20010904//EN"
 "http://www.w3.org/TR/2001/REC-SVG-20010904/DTD/svg10.dtd">
<svg version="1.0" xmlns="http://www.w3.org/2000/svg"
 width="300.000000pt" height="335.000000pt" viewBox="0 0 300.000000 335.000000"
 preserveAspectRatio="xMidYMid meet">
<metadata>
Created by potrace 1.10, written by Peter Selinger 2001-2011
</metadata>
<g transform="translate(0.000000,335.000000) scale(0.100000,-0.100000)"
fill="#000000" stroke="none">
<path d="M1248 3324 c-111 -20 -246 -67 -362 -125 -391 -198 -683 -564 -815
-1024 -24 -86 -51 -228 -50 -264 2 -30 2 -27 26 99 54 296 170 547 359 780
235 290 531 465 895 528 74 13 98 20 69 20 -25 0 -79 -6 -122 -14z"/>
<path d="M1635 3330 c212 -33 384 -91 538 -181 270 -160 467 -370 611 -654 91
-179 137 -321 170 -520 23 -139 25 -146 20 -63 -5 85 -49 276 -89 386 -171
473 -522 831 -958 977 -105 35 -256 66 -311 64 -22 -1 -17 -4 19 -9z"/>
<path d="M1372 2580 c-13 -5 -36 -11 -52 -12 -16 -1 -27 -4 -24 -7 2 -3 -19
-20 -47 -37 -52 -33 -134 -125 -165 -186 -9 -18 -23 -41 -32 -50 -8 -10 -12
-18 -7 -18 4 0 2 -7 -5 -15 -16 -19 -20 -260 -6 -344 7 -43 6 -52 -5 -49 -25
9 -48 -12 -55 -48 -5 -26 1 -65 21 -135 15 -55 31 -102 36 -105 5 -3 9 -15 9
-28 0 -29 18 -46 49 -46 23 0 28 -8 50 -77 15 -46 28 -117 31 -173 9 -117 28
-159 107 -229 88 -78 197 -151 228 -151 42 0 216 95 269 147 52 51 79 96 74
121 -3 12 -11 5 -31 -25 -14 -23 -32 -45 -40 -50 -7 -4 -23 -22 -35 -40 -25
-36 -195 -133 -232 -133 -21 0 -130 73 -138 92 -2 4 -9 8 -16 8 -6 0 -35 24
-63 53 -50 50 -72 88 -78 134 -2 11 -10 47 -20 78 -9 31 -14 59 -11 62 8 8 27
-8 21 -18 -4 -5 1 -9 10 -9 8 0 18 -7 21 -15 4 -8 12 -15 20 -15 8 0 11 6 7
17 -4 9 -2 14 3 11 5 -3 18 -2 29 3 17 6 16 8 -10 9 -16 2 -33 2 -37 1 -5 0
-8 4 -8 9 0 6 -7 10 -15 10 -8 0 -15 6 -15 13 0 7 -20 52 -44 99 -24 48 -48
99 -54 115 l-10 28 -1 -27 c-1 -37 -20 -36 -27 2 -4 18 -13 30 -22 30 -8 0
-12 3 -9 6 3 4 2 15 -4 25 -15 29 7 24 36 -7 14 -15 25 -22 25 -16 0 18 -22
62 -32 62 -12 0 -10 44 3 57 6 6 9 21 7 34 -4 23 -4 23 -25 -9 -11 -19 -19
-42 -16 -52 3 -10 0 -21 -6 -24 -6 -4 -12 7 -15 26 -11 66 -14 116 -8 123 4 4
8 11 8 16 1 5 2 12 3 15 0 4 12 -1 26 -10 l26 -17 -3 76 c-2 41 -5 75 -8 75
-3 0 -6 9 -7 20 -1 11 3 20 10 20 8 0 8 3 -1 12 -14 14 -16 58 -3 58 5 0 12
-6 15 -12 3 -7 3 0 0 17 -3 16 -6 32 -6 35 -2 7 9 52 29 122 11 39 29 72 59
104 23 27 41 52 38 56 -3 4 0 8 6 8 6 0 9 4 5 9 -8 14 16 61 31 61 7 0 19 6
26 14 25 24 78 48 78 34 0 -7 5 -5 13 5 6 9 21 18 32 20 11 1 25 5 30 9 6 3
30 4 55 1 25 -2 53 -4 63 -4 9 0 17 -5 17 -10 0 -6 9 -8 19 -4 11 3 22 1 26
-4 3 -6 25 -15 48 -22 43 -11 81 -39 99 -73 5 -10 6 -16 1 -13 -4 3 -13 -1
-20 -8 -8 -9 -3 -15 23 -25 18 -8 43 -25 55 -38 21 -24 79 -160 93 -215 4 -15
10 -25 15 -22 5 2 9 -5 9 -18 0 -12 3 -40 6 -62 6 -43 15 -140 16 -165 1 -11
4 -10 16 5 18 24 45 11 55 -26 9 -31 -1 -150 -14 -166 -5 -7 -7 -22 -4 -33 3
-10 -1 -24 -9 -31 -8 -6 -14 -17 -14 -24 0 -7 -7 -18 -15 -25 -12 -10 -15 -10
-15 4 0 9 -4 16 -10 16 -5 0 -10 -11 -10 -24 0 -14 -4 -28 -10 -31 -5 -3 -10
-19 -10 -35 0 -16 -4 -32 -10 -35 -5 -3 -10 -15 -10 -26 0 -10 -5 -19 -11 -19
-14 0 -39 -25 -39 -39 0 -6 -7 -11 -15 -11 -8 0 -15 -7 -15 -15 0 -8 5 -15 10
-15 6 0 10 -4 10 -10 0 -5 -7 -10 -15 -10 -8 0 -15 5 -15 10 0 6 -5 10 -12 10
-6 0 -1 -11 12 -25 19 -21 21 -25 7 -25 -9 0 -17 -4 -17 -10 0 -5 -5 -10 -10
-10 -7 0 -7 6 0 19 11 22 1 34 -19 22 -9 -6 -10 -11 -2 -15 16 -10 -13 -63
-39 -71 -11 -4 -17 -11 -14 -17 5 -7 1 -9 -9 -5 -10 3 -17 2 -17 -3 0 -26 26
-13 104 55 47 42 86 73 86 70 0 -3 -7 -22 -15 -41 -18 -43 -13 -114 9 -126 23
-13 21 -135 -4 -223 -11 -38 -20 -81 -20 -95 l1 -25 15 29 c22 40 54 135 54
160 0 42 14 50 50 29 18 -10 49 -27 69 -38 20 -11 48 -27 61 -36 30 -19 160
-71 335 -134 186 -66 237 -88 248 -106 10 -16 -26 -72 -102 -164 -40 -48 -163
-167 -205 -200 -22 -16 -51 -39 -65 -51 -30 -24 -187 -119 -214 -129 -20 -8
-18 -1 33 110 73 158 138 340 126 352 -3 3 -8 0 -10 -8 -50 -157 -74 -223
-112 -305 -72 -156 -87 -184 -98 -184 -6 0 -24 -7 -41 -16 -20 -10 -31 -12
-33 -4 -3 7 -12 6 -28 -5 -26 -17 -117 -43 -178 -51 l-38 -5 5 33 c3 18 17 80
32 138 14 58 30 128 35 155 5 28 17 78 25 112 15 59 18 133 5 133 -7 0 -17
-41 -55 -215 -35 -158 -85 -355 -97 -378 -5 -10 -8 -20 -6 -22 8 -9 179 29
276 60 303 98 553 287 758 574 l62 85 -73 32 c-41 18 -92 35 -114 39 -23 4
-41 10 -41 14 0 4 -25 15 -56 25 -31 10 -77 29 -102 42 -25 13 -52 24 -60 24
-24 0 -241 100 -297 137 -65 42 -75 51 -109 96 -27 37 -28 41 -21 114 4 44 18
102 34 141 32 78 31 73 31 112 0 22 5 30 18 30 29 0 56 25 58 56 1 16 12 69
24 117 23 93 21 142 -6 185 -8 12 -25 22 -38 22 -22 0 -23 3 -29 103 -11 203
-58 320 -177 434 -92 88 -171 121 -300 128 -47 2 -95 0 -108 -5z"/>
<path d="M1706 2004 c-11 -8 -24 -10 -30 -5 -6 4 -26 4 -45 -1 -23 -6 -30 -12
-22 -17 10 -6 9 -10 -3 -14 -9 -4 -16 -2 -16 3 0 6 -4 10 -10 10 -5 0 -10 -7
-10 -16 0 -14 -2 -15 -17 -3 -14 12 -16 12 -11 -1 6 -19 45 -20 124 -4 58 12
91 9 152 -10 33 -11 28 13 -10 46 -36 30 -44 33 -53 18 -3 -5 -1 -10 4 -10 6
0 11 -5 11 -12 0 -6 -10 -2 -22 10 -20 18 -25 19 -42 6z"/>
<path d="M1211 1971 c-6 -9 -9 -10 -6 -3 3 6 2 12 -3 12 -16 0 -39 -34 -45
-64 l-5 -30 17 22 c21 29 92 68 76 42 -4 -6 11 -10 39 -10 24 0 57 -5 73 -11
32 -12 72 -56 73 -80 0 -9 7 -16 16 -16 27 0 13 50 -19 65 -22 11 -26 16 -17
27 16 20 3 36 -25 31 -17 -3 -22 -1 -18 10 3 8 -1 14 -8 15 -99 8 -137 5 -148
-10z"/>
<path d="M1566 1899 c-30 -23 -26 -45 5 -28 12 6 18 13 15 16 -3 4 -1 12 5 20
17 19 5 16 -25 -8z"/>
<path d="M1670 1884 c-38 -14 -60 -29 -60 -41 0 -7 8 -13 18 -12 11 0 13 2 4
6 -10 4 -7 9 8 20 20 14 23 13 41 -6 25 -26 33 -26 58 1 18 19 21 20 27 4 4
-11 0 -22 -11 -30 -13 -9 -15 -15 -7 -20 7 -4 12 -3 12 2 0 5 14 16 31 25 l32
15 -30 16 c-35 17 -100 28 -123 20z"/>
<path d="M1360 1869 c11 -7 5 -8 -21 -4 -45 8 -110 -9 -134 -35 -17 -19 -17
-20 -1 -20 10 0 20 -9 23 -20 4 -15 13 -20 37 -19 30 2 30 2 3 6 -16 3 -25 9
-21 15 4 6 1 14 -7 18 -10 7 -10 12 0 23 10 13 15 12 37 -10 20 -20 28 -22 39
-13 8 7 15 19 15 26 0 15 18 18 44 8 9 -3 13 -11 9 -18 -4 -8 -3 -8 6 0 10 9
9 16 -5 33 -10 11 -23 21 -29 21 -5 0 -3 -5 5 -11z"/>
<path d="M1645 1792 c45 -23 105 -42 105 -32 0 5 -21 15 -47 22 -37 9 -43 13
-27 18 13 5 7 7 -19 7 l-38 -1 26 -14z"/>
<path d="M1345 1778 c-11 -7 -42 -18 -70 -25 l-50 -13 53 4 c38 2 60 9 75 25
24 23 22 26 -8 9z"/>
<path d="M1601 1763 c6 -17 17 -34 26 -37 26 -10 24 -2 -7 35 l-30 34 11 -32z"/>
<path d="M1450 1757 c0 -9 -6 -17 -13 -17 -8 0 -24 -12 -38 -26 -24 -26 -24
-27 -1 -15 12 7 26 10 31 7 15 -10 45 44 32 57 -8 8 -11 6 -11 -6z"/>
<path d="M1965 1740 c-3 -5 -1 -10 4 -10 19 0 12 -22 -8 -27 -23 -6 -44 -83
-22 -83 5 0 12 14 16 31 4 17 13 33 21 36 8 3 14 18 14 34 0 29 -13 38 -25 19z"/>
<path d="M1681 1714 c3 -5 11 -21 19 -36 15 -32 30 -37 30 -10 0 9 -12 26 -27
36 -14 11 -24 15 -22 10z"/>
<path d="M1569 1654 c-12 -15 -10 -16 19 -10 21 5 32 4 32 -4 0 -6 5 -8 12 -4
7 5 5 11 -7 21 -25 17 -40 17 -56 -3z"/>
<path d="M1415 1650 c-4 -6 9 -10 32 -10 22 0 43 -3 49 -7 5 -5 1 0 -9 10 -21
19 -62 23 -72 7z"/>
<path d="M2983 1580 c0 -36 2 -50 4 -32 2 17 2 47 0 65 -2 17 -4 3 -4 -33z"/>
<path d="M1568 1607 c-21 -8 -28 -18 -28 -39 0 -24 4 -28 29 -28 18 0 32 7 36
18 7 16 8 15 15 -3 7 -17 9 -17 9 -2 1 9 6 17 12 17 6 0 8 -7 5 -16 -5 -12 -2
-15 10 -10 15 6 54 -22 54 -39 0 -3 -45 -3 -99 0 -89 5 -256 -7 -269 -20 -11
-10 20 -33 39 -28 11 3 46 0 79 -6 50 -10 75 -9 151 5 78 14 92 20 102 41 10
21 7 28 -20 53 -17 16 -33 26 -37 23 -3 -3 -11 6 -17 21 -12 25 -13 25 -31 9
-13 -11 -15 -19 -7 -24 6 -3 7 -9 2 -12 -5 -3 -15 -2 -23 3 -12 7 -11 12 4 29
11 12 17 21 15 20 -2 -1 -16 -6 -31 -12z m-47 -129 c7 -10 9 -10 9 0 0 8 20
12 66 12 45 0 63 -3 58 -11 -3 -6 -22 -9 -40 -7 -19 2 -35 0 -36 -4 -6 -16
-198 -6 -198 11 0 3 30 7 67 9 46 2 69 -1 74 -10z"/>
<path d="M1476 1578 c-11 -15 -16 -18 -16 -8 -1 11 -4 10 -12 -4 -10 -18 -11
-18 -24 5 -9 17 -13 19 -14 8 0 -9 -7 -19 -15 -23 -8 -3 -15 -10 -15 -16 0 -6
5 -8 10 -5 6 4 38 6 70 6 53 0 59 2 51 17 -4 9 -6 23 -4 30 8 20 -15 13 -31
-10z"/>
<path d="M1341 1544 c-29 -34 -38 -54 -26 -54 9 0 43 37 55 60 19 36 5 33 -29
-6z"/>
<path d="M2968 1460 c-4 -19 -9 -62 -12 -95 l-5 -60 15 70 c8 39 13 81 12 95
-3 21 -4 20 -10 -10z"/>
<path d="M21 1437 c-1 -39 25 -163 60 -285 32 -112 91 -261 97 -244 2 6 -6 31
-17 56 -40 86 -84 231 -112 366 -15 74 -28 122 -28 107z"/>
<path d="M2806 1385 c-9 -20 -13 -42 -9 -49 4 -6 -1 -5 -10 3 -12 9 -17 10
-17 2 0 -7 -4 -10 -9 -7 -5 3 -25 8 -45 10 -27 4 -36 1 -36 -9 0 -8 7 -15 15
-15 8 0 15 -7 15 -15 0 -8 7 -15 16 -15 8 0 12 5 9 10 -9 14 20 23 50 16 30
-8 33 -26 5 -26 -11 0 -20 -4 -20 -10 0 -5 -7 -7 -15 -4 -8 4 -15 1 -15 -6 0
-8 8 -10 23 -6 56 16 77 18 77 7 0 -11 -20 -15 -50 -11 -12 2 -11 -3 4 -19 12
-13 23 -18 30 -12 6 5 21 4 36 -2 23 -9 23 -10 5 -14 -47 -10 -48 -13 -21 -38
15 -14 38 -25 51 -25 20 0 25 7 35 48 6 26 14 57 17 70 3 13 1 22 -6 22 -6 0
-11 -9 -11 -19 0 -11 -7 -27 -16 -35 -9 -10 -13 -24 -9 -36 5 -16 2 -20 -19
-20 -14 0 -28 5 -31 10 -3 6 3 10 14 10 17 0 21 6 21 30 0 32 -9 37 -27 19 -9
-9 -11 -7 -8 7 1 11 7 18 13 17 16 -4 35 24 22 32 -6 4 -10 3 -9 -2 4 -22 -2
-25 -16 -7 -13 17 -14 17 -15 2 0 -12 -5 -15 -16 -11 -10 4 -14 14 -11 30 2
13 0 26 -4 29 -5 3 -9 12 -9 20 0 11 6 13 21 9 19 -6 20 -5 9 17 -7 12 -14 25
-16 27 -1 2 -10 -14 -18 -34z"/>
<path d="M1475 1382 c2 -3 15 -5 27 -6 15 -1 22 -7 20 -16 -2 -8 0 -12 3 -8 4
4 16 3 26 -3 11 -6 19 -6 19 0 0 5 11 12 25 15 14 4 25 11 25 16 0 12 -52 1
-61 -12 -3 -5 -9 -3 -12 6 -4 10 -18 15 -42 14 -19 -1 -33 -3 -30 -6z"/>
<path d="M1617 1185 c-15 -14 -27 -21 -27 -14 0 8 -4 8 -12 2 -7 -6 -26 -13
-41 -15 -22 -4 -31 -1 -38 16 -9 21 -9 21 -5 -1 3 -15 -1 -23 -10 -23 -8 0
-14 4 -14 8 0 9 -119 46 -127 39 -2 -3 19 -17 48 -31 83 -42 135 -42 251 3 19
7 26 15 22 26 -8 21 -15 19 -47 -10z"/>
<path d="M2475 1190 c-4 -6 1 -10 9 -10 12 0 14 -8 10 -32 -4 -25 -3 -29 5
-18 15 22 13 57 -4 63 -8 4 -17 2 -20 -3z"/>
<path d="M2438 1173 c-17 -19 -48 -103 -48 -128 0 -9 9 -15 21 -15 18 0 19 3
9 15 -10 12 -9 25 6 67 10 29 22 59 27 66 14 18 2 15 -15 -5z"/>
<path d="M1126 1131 c-15 -16 -47 -36 -69 -44 -55 -20 -219 -57 -251 -57 -32
0 -172 -38 -208 -56 -15 -8 -48 -14 -73 -14 -25 0 -97 -13 -160 -30 -63 -16
-124 -30 -135 -30 -10 0 -24 -9 -30 -20 -9 -18 -2 -37 51 -126 151 -253 385
-477 626 -598 40 -20 74 -36 76 -36 2 0 7 44 10 98 7 105 42 383 56 445 5 22
19 49 30 61 25 27 28 44 4 25 -15 -13 -15 -11 -9 25 4 22 23 68 42 103 18 35
29 63 23 63 -5 0 -15 -14 -21 -31 -6 -16 -13 -28 -16 -25 -7 8 19 66 29 66 5
0 9 9 9 19 0 11 12 57 26 101 14 45 24 84 22 86 -3 2 -17 -9 -32 -25z m-36
-103 c0 -13 -16 -75 -35 -138 -63 -203 -74 -244 -85 -320 -16 -104 -17 -110
-30 -245 -15 -156 -12 -147 -56 -129 -48 20 -144 84 -144 96 0 6 -7 7 -16 4
-8 -3 -20 -1 -27 4 -7 6 -22 18 -35 28 -19 14 -24 32 -32 102 -5 47 -11 133
-12 192 -2 66 -7 107 -13 105 -12 -4 -12 -39 -2 -209 4 -71 4 -128 0 -128 -9
0 -100 89 -163 160 -42 47 -140 183 -140 195 0 3 -11 23 -25 43 -46 68 -36 77
120 111 50 11 115 24 145 30 30 5 96 21 145 35 50 14 104 26 120 27 17 0 77
13 135 28 136 36 150 37 150 9z"/>
<path d="M730 796 c0 -7 93 -57 97 -52 3 2 -15 16 -40 30 -42 25 -57 31 -57
22z"/>
<path d="M2756 1125 c-12 -19 -25 -25 -54 -26 -62 -1 -136 -58 -103 -78 8 -5
20 -7 28 -4 9 3 13 -3 13 -20 0 -13 8 -31 18 -38 14 -11 15 -11 5 1 -7 8 -13
26 -13 41 0 18 -6 28 -20 32 -36 9 -15 35 35 43 6 1 12 3 15 4 3 1 14 4 25 5
29 4 76 31 68 39 -4 4 -1 11 7 16 8 6 10 10 4 10 -7 0 -19 -11 -28 -25z"/>
<path d="M2826 1125 c10 -8 25 -15 32 -15 7 0 12 -13 12 -31 0 -16 -4 -28 -9
-25 -5 4 -12 0 -14 -6 -4 -8 -8 -4 -13 10 -9 31 -23 10 -16 -25 3 -16 7 -21
12 -13 14 23 19 -6 5 -31 -8 -13 -21 -39 -29 -57 -13 -28 -18 -32 -29 -20 -8
7 -16 20 -20 28 -4 11 -6 10 -6 -4 -1 -23 30 -96 40 -96 7 0 40 79 39 93 0 4
5 14 12 21 18 17 72 175 64 184 -4 3 -11 0 -15 -7 -7 -11 -15 -11 -41 -2 -43
15 -48 14 -24 -4z"/>
<path d="M2533 1038 c-3 -30 -11 -33 -32 -14 -12 11 -21 13 -25 7 -4 -6 11
-22 34 -37 22 -15 40 -30 40 -34 0 -12 200 -193 207 -186 3 3 -13 25 -35 48
-23 23 -42 50 -42 61 0 13 -5 17 -18 13 -12 -4 -27 3 -43 20 l-24 26 25 -7
c14 -3 34 -9 45 -11 20 -5 20 -5 1 10 -11 9 -36 16 -56 16 -25 0 -43 7 -58 23
-20 21 -20 25 -7 44 12 17 12 23 2 31 -10 8 -13 6 -14 -10z"/>
<path d="M2697 1023 c8 -3 11 -14 7 -29 -6 -22 -4 -23 17 -15 13 4 25 16 27
25 2 11 -1 14 -11 10 -8 -3 -18 -1 -22 5 -3 6 -12 11 -18 10 -9 0 -9 -2 0 -6z"/>
<path d="M2366 1005 c-10 -27 -7 -85 5 -85 7 0 9 10 5 25 -5 20 -2 27 14 33
21 8 21 8 2 25 -18 16 -20 16 -26 2z"/>
<path d="M2432 1008 c-15 -15 -16 -38 -2 -38 12 0 23 25 18 40 -2 7 -7 7 -16
-2z"/>
<path d="M1152 952 c-18 -34 -37 -90 -44 -131 -14 -85 -15 -84 78 -101 51 -10
72 -9 124 4 34 9 67 13 72 9 6 -3 8 -1 5 5 -5 7 13 8 55 5 35 -3 65 -10 67
-15 6 -16 81 -81 121 -105 21 -13 58 -26 83 -29 l44 -6 15 53 c8 30 11 56 6
57 -4 2 -5 9 -2 14 4 7 2 8 -4 4 -7 -4 -12 -16 -12 -27 0 -63 -53 -74 -131
-26 -62 38 -127 96 -109 98 26 2 -43 17 -85 18 -23 0 -45 5 -50 9 -20 17 -65
32 -65 22 0 -6 14 -13 30 -17 89 -17 -55 -50 -159 -36 -65 9 -74 26 -45 89 10
22 18 47 19 57 1 11 12 28 23 39 l20 21 54 -31 c63 -36 138 -99 138 -115 0
-17 132 -16 145 1 15 19 205 83 227 76 10 -3 22 -22 28 -47 17 -65 18 -66 19
-11 1 37 -5 59 -18 75 -18 23 -21 23 -77 11 -31 -6 -92 -28 -135 -48 -51 -24
-86 -35 -101 -31 -13 3 -36 9 -53 13 -16 4 -48 21 -70 39 -63 50 -160 115
-172 115 -5 0 -24 -26 -41 -58z"/>
<path d="M2392 943 c3 -12 1 -24 -6 -26 -16 -6 -5 -13 32 -20 31 -6 32 -5 32
26 -1 27 -2 29 -11 14 -10 -17 -12 -17 -31 5 l-21 23 5 -22z"/>
<path d="M2520 935 c-6 -8 -9 -23 -5 -34 4 -13 0 -23 -12 -30 -17 -9 -17 -11
-2 -26 15 -15 19 -14 48 17 36 38 38 49 13 71 -23 21 -26 21 -42 2z"/>
<path d="M2065 704 l-40 -14 50 5 c27 3 54 10 59 15 14 14 -20 11 -69 -6z"/>
<path d="M1377 675 c-11 -37 -39 -214 -35 -226 2 -6 14 40 27 104 13 63 21
121 19 128 -3 10 -7 8 -11 -6z"/>
<path d="M1333 345 c0 -38 2 -53 4 -32 2 20 2 52 0 70 -2 17 -4 1 -4 -38z"/>
<path d="M1010 131 c0 -8 -7 -11 -20 -8 -31 8 -23 -9 10 -23 37 -15 41 -12 23
20 -7 14 -13 19 -13 11z"/>
</g>
</svg>
